<svg width="98" height="23" viewBox="0 0 98 23" fill="none" xmlns="http://www.w3.org/2000/svg">
<path d="M2.66364 9.87641C2.66364 7.28261 2.62373 5.45697 2.54392 4.39949C2.48407 3.34202 2.3444 2.65367 2.12492 2.33443C1.9254 1.99524 1.56626 1.73585 1.0475 1.55628L0 1.22707V1.0475H8.94863V1.22707L7.90113 1.55628C7.38237 1.7159 7.01325 1.96531 6.79377 2.3045C6.59425 2.64369 6.45458 3.352 6.37477 4.42942C6.29496 5.4869 6.25506 7.30256 6.25506 9.87641V13.1386C6.25506 15.7125 6.29496 17.5381 6.37477 18.6155C6.45458 19.673 6.59425 20.3713 6.79377 20.7105C7.01325 21.0497 7.38237 21.3091 7.90113 21.4887L8.94863 21.8179V21.9975H0V21.8179L1.0475 21.4887C1.56626 21.3091 1.9254 21.0497 2.12492 20.7105C2.3444 20.3713 2.48407 19.673 2.54392 18.6155C2.62373 17.5581 2.66364 15.7324 2.66364 13.1386V9.87641Z" fill="#C3A195"/>
<path d="M15.0898 16.8198C15.0898 18.2564 15.1197 19.274 15.1796 19.8725C15.2594 20.4711 15.3791 20.8702 15.5387 21.0697C15.6984 21.2692 15.9877 21.4288 16.4067 21.5485L17.3045 21.8179V21.9975H9.67276V21.8179L10.5706 21.5485C10.9896 21.4288 11.2789 21.2692 11.4385 21.0697C11.5982 20.8702 11.7079 20.4711 11.7678 19.8725C11.8476 19.274 11.8875 18.2564 11.8875 16.8198V14.5752C11.8875 13.3182 11.8575 12.4303 11.7977 11.9116C11.7378 11.3728 11.5982 10.9937 11.3787 10.7743C11.1592 10.5548 10.8001 10.4052 10.3013 10.3253L9.76254 10.2655V10.0859L14.9102 7.39234H15.03V10.2356H15.1796C16.257 9.27784 17.2447 8.56953 18.1425 8.11063C19.0404 7.63177 19.8983 7.39234 20.7164 7.39234C21.7739 7.39234 22.5221 7.71158 22.961 8.35006C23.4199 8.98853 23.6494 9.89636 23.6494 11.0736V16.8198C23.6494 18.2564 23.6793 19.274 23.7392 19.8725C23.799 20.4711 23.9088 20.8702 24.0684 21.0697C24.228 21.2692 24.5173 21.4288 24.9363 21.5485L25.8342 21.8179V21.9975H18.2323V21.8179L19.1002 21.5485C19.5192 21.4288 19.8085 21.2692 19.9682 21.0697C20.1278 20.8702 20.2375 20.4711 20.2974 19.8725C20.3772 19.274 20.4171 18.2564 20.4171 16.8198V12.2408C20.4171 11.4626 20.2575 10.894 19.9382 10.5348C19.639 10.1557 19.1501 9.9662 18.4717 9.9662C17.5739 9.9662 16.4466 10.1857 15.0898 10.6246V16.8198Z" fill="#C3A195"/>
<path d="M40.219 16.8198C40.219 18.2564 40.2489 19.274 40.3088 19.8725C40.3886 20.4711 40.5083 20.8702 40.6679 21.0697C40.8276 21.2692 41.1169 21.4288 41.5359 21.5485L42.4337 21.8179V21.9975H34.802V21.8179L35.6998 21.5485C36.1188 21.4288 36.4081 21.2692 36.5677 21.0697C36.7274 20.8702 36.8371 20.4711 36.897 19.8725C36.9768 19.274 37.0167 18.2564 37.0167 16.8198V12.2408C37.0167 11.4826 36.867 10.9139 36.5677 10.5348C36.2685 10.1557 35.7996 9.9662 35.1611 9.9662C34.2034 9.9662 33.0462 10.1857 31.6894 10.6246V16.8198C31.6894 18.2564 31.7193 19.274 31.7792 19.8725C31.859 20.4711 31.9787 20.8702 32.1383 21.0697C32.2979 21.2692 32.5872 21.4288 33.0062 21.5485L33.9041 21.8179V21.9975H26.2723V21.8179L27.1702 21.5485C27.5892 21.4288 27.8785 21.2692 28.0381 21.0697C28.1977 20.8702 28.3075 20.4711 28.3673 19.8725C28.4471 19.274 28.487 18.2564 28.487 16.8198V14.4256L28.4571 7.15292C28.4771 5.87597 28.4471 4.95816 28.3673 4.39949C28.2875 3.84083 28.1479 3.46173 27.9483 3.26221C27.7488 3.04273 27.3996 2.89309 26.9008 2.81328L26.422 2.75343V2.57385L31.5996 0H31.7193V2.15486L31.6894 6.91349V8.85884L31.6295 10.2356H31.7792C32.8566 9.27784 33.8442 8.56953 34.7421 8.11063C35.6599 7.63177 36.5179 7.39234 37.316 7.39234C39.2513 7.39234 40.219 8.61941 40.219 11.0736V16.8198Z" fill="#C3A195"/>
<path d="M55.4433 14.9942C55.4233 17.4483 54.9046 19.3039 53.887 20.5609C52.8894 21.7979 51.4827 22.4165 49.6671 22.4165C48.5896 22.4165 47.5821 22.177 46.6443 21.6982C45.7065 21.1994 44.9384 20.4312 44.3398 19.3937C43.7412 18.3362 43.4419 16.9994 43.4419 15.3833C43.4419 13.7272 43.7811 12.3006 44.4595 11.1035C45.1578 9.90634 46.0158 8.99851 47.0334 8.37999C48.0709 7.76146 49.0685 7.4522 50.0262 7.4522C51.5226 7.4522 52.7597 7.95101 53.7374 8.94863C54.735 9.94624 55.2338 11.3629 55.2338 13.1985L54.8746 13.5875L46.7341 13.3182V13.6175C46.7341 15.6127 47.1132 17.179 47.8714 18.3163C48.6495 19.4535 49.707 20.0222 51.0438 20.0222C52.221 20.0222 53.1986 19.5932 53.9768 18.7353C54.7549 17.8574 55.1839 16.6004 55.2637 14.9643L55.4433 14.9942ZM49.6671 8.23034C48.9288 8.23034 48.2804 8.63937 47.7217 9.45741C47.1631 10.2755 46.8438 11.4127 46.764 12.8693L51.8219 12.7196C51.9017 12.3405 51.9416 11.9215 51.9416 11.4626C51.9416 10.5448 51.7521 9.77665 51.373 9.15813C50.9939 8.53961 50.4253 8.23034 49.6671 8.23034Z" fill="#C3A195"/>
<path d="M60.2057 22.4763C59.3278 22.4763 58.5995 22.1671 58.0209 21.5485C57.4622 20.9101 57.1829 20.112 57.1829 19.1543C57.1829 18.017 57.5819 17.1191 58.38 16.4607C59.1981 15.7823 60.6147 15.2635 62.6299 14.9044L64.665 14.5153V11.7619C64.665 10.5049 64.4256 9.60706 63.9467 9.06834C63.4878 8.50968 62.9391 8.23034 62.3007 8.23034C61.8018 8.23034 61.4028 8.41989 61.1035 8.79898C60.8042 9.17808 60.6546 9.83651 60.6546 10.7743C60.6546 11.5125 60.7543 12.4104 60.9539 13.4678L57.4522 13.797C57.6318 11.5025 58.3501 9.86644 59.6071 8.88877C60.884 7.91111 62.3306 7.42227 63.9467 7.42227C65.2835 7.42227 66.2712 7.76146 66.9096 8.43984C67.5481 9.09827 67.8674 10.0859 67.8674 11.4028C67.8674 11.9814 67.8474 12.9291 67.8075 14.246C67.7676 15.8023 67.7477 17.1391 67.7477 18.2564C67.7477 18.835 67.8175 19.274 67.9571 19.5733C68.1168 19.8526 68.3662 19.9923 68.7054 19.9923C69.2441 19.9923 69.6032 19.7329 69.7828 19.2141C69.9823 18.6754 70.0821 17.7576 70.0821 16.4607H70.3215C70.3614 18.3562 70.1519 19.8127 69.693 20.8302C69.2341 21.8279 68.4559 22.3267 67.3586 22.3267C65.5828 22.3267 64.7049 21.2493 64.7249 19.0944L64.6357 19.711C63.9773 20.7086 63.847 21.0296 63.1686 21.6681C62.4902 22.2866 61.1235 22.4763 60.2057 22.4763ZM61.8816 19.9025C62.3805 19.9025 62.8094 19.8127 63.1686 19.6331C63.5477 19.4336 64.0465 19.1343 64.665 18.7353V17.02L62.8992 18.017C61.9016 18.3961 61.1933 16.2113 60.7743 16.6103C60.3553 16.9894 60.1458 17.4583 60.1458 18.017C60.1458 18.6155 60.2954 19.0844 60.5947 19.4236C60.914 19.7429 61.3429 19.9025 61.8816 19.9025Z" fill="#C3A195"/>
<path d="M76.4681 16.5205C76.4681 17.9771 76.5279 19.0146 76.6476 19.6331C76.7873 20.2516 77.0267 20.6706 77.3659 20.8901C77.7051 21.1096 78.3137 21.3291 79.1916 21.5485L80.2391 21.8179V21.9975H70.9911V21.8179L71.9189 21.5485C72.3379 21.4089 72.6272 21.2393 72.7869 21.0397C72.9465 20.8402 73.0562 20.4312 73.1161 19.8127C73.1959 19.1742 73.2358 18.0768 73.2358 16.5205V14.3956C73.2358 13.2184 73.1959 12.3705 73.1161 11.8517C73.0363 11.313 72.8866 10.9439 72.6672 10.7443C72.4676 10.5448 72.1284 10.4052 71.6496 10.3253L71.1408 10.2655V10.0859L76.2885 7.39234L76.4082 7.42227V10.9538H76.5279C77.6054 9.73675 78.5431 8.84887 79.3412 8.2902C80.1593 7.71158 80.9075 7.42227 81.5858 7.42227H81.7953V11.1334H81.7056C80.8277 10.9139 79.9996 10.8042 79.2215 10.8042C78.2039 10.8042 77.2861 10.9838 76.4681 11.3429V16.5205Z" fill="#C3A195"/>
<path d="M87.449 22.4165C85.0747 22.4165 83.8875 21.0697 83.8875 18.3761C83.8875 17.7775 83.9274 16.2013 84.0072 13.6474C84.127 10.6745 84.1868 8.96858 84.1868 8.52963H82.3911V7.84127H84.3664L87.1198 3.32207H87.2695V7.84127H92.0281L92.088 7.93106L91.9982 8.52963H87.2695C87.2096 11.5225 87.1797 14.4754 87.1797 17.3885C87.1797 18.3661 87.3193 19.0645 87.5987 19.4835C87.8979 19.8825 88.3668 20.082 89.0053 20.082C89.5241 20.082 89.953 19.9623 90.2922 19.7229C90.6514 19.4835 90.9606 19.0645 91.22 18.4659C91.4994 17.8474 91.7687 16.9695 92.0281 15.8322L92.2077 15.8621C91.9882 18.0569 91.4994 19.7029 90.7412 20.8003C90.0029 21.8778 88.9055 22.4165 87.449 22.4165Z" fill="#C3A195"/>
<path d="M96.0546 22.3865C95.496 22.3865 95.0171 22.2169 94.6181 21.8778C94.239 21.5186 94.0494 21.0896 94.0494 20.5908C94.0494 20.112 94.239 19.7029 94.6181 19.3638C95.0171 19.0046 95.496 18.825 96.0546 18.825C96.5734 18.825 97.0223 19.0046 97.4014 19.3638C97.8005 19.7029 98 20.112 98 20.5908C98 21.0896 97.8005 21.5186 97.4014 21.8778C97.0223 22.2169 96.5734 22.3865 96.0546 22.3865Z" fill="#C3A195"/>
<path d="M62.2475 17.0217C61.4762 16.2884 60.2284 16.2849 59.4604 17.0149C58.6924 17.745 58.6962 18.9312 59.4675 19.6644L62.3227 22.3787C62.4411 22.4913 62.6331 22.4913 62.7515 22.3787L65.5919 19.6801C66.358 18.9477 66.3556 17.7648 65.5842 17.0314C64.8115 16.2969 63.5631 16.2933 62.7938 17.0247L62.5225 17.2831L62.2475 17.0217Z" fill="#131414"/>
<path d="M62.2822 17.9374L62.6186 17.0811L61.9459 16.653L61.793 18.0903L62.955 18.6407L62.5269 19.8944L63.4443 18.5489L62.2822 17.9374Z" fill="#C3A195"/>
</svg>
