<svg width="87" height="20" viewBox="0 0 87 20" fill="none" xmlns="http://www.w3.org/2000/svg">
<path d="M2.36466 8.76783C2.36466 6.46517 2.32923 4.84445 2.25838 3.90567C2.20524 2.96689 2.08125 2.3558 1.88641 2.0724C1.70928 1.77128 1.39045 1.54101 0.929922 1.3816L0 1.08934V0.929923H7.94419V1.08934L7.01427 1.3816C6.55373 1.5233 6.22605 1.74471 6.03121 2.04583C5.85408 2.34695 5.73009 2.97575 5.65924 3.93224C5.58839 4.87102 5.55296 6.48288 5.55296 8.76783V11.6639C5.55296 13.9488 5.58839 15.5696 5.65924 16.526C5.73009 17.4648 5.85408 18.0848 6.03121 18.3859C6.22605 18.687 6.55373 18.9173 7.01427 19.0767L7.94419 19.3689V19.5284H0V19.3689L0.929922 19.0767C1.39045 18.9173 1.70928 18.687 1.88641 18.3859C2.08125 18.0848 2.20524 17.4648 2.25838 16.526C2.32923 15.5873 2.36466 13.9665 2.36466 11.6639V8.76783Z" fill="#C3A195"/>
<path d="M13.3961 14.9319C13.3961 16.2072 13.4226 17.1106 13.4758 17.642C13.5466 18.1733 13.6529 18.5276 13.7946 18.7047C13.9363 18.8818 14.1931 19.0235 14.5651 19.1298L15.3622 19.3689V19.5284H8.58704V19.3689L9.38411 19.1298C9.75608 19.0235 10.0129 18.8818 10.1546 18.7047C10.2963 18.5276 10.3937 18.1733 10.4469 17.642C10.5177 17.1106 10.5532 16.2072 10.5532 14.9319V12.9392C10.5532 11.8233 10.5266 11.0351 10.4735 10.5745C10.4203 10.0963 10.2963 9.75975 10.1015 9.56491C9.90664 9.37007 9.58781 9.23723 9.14499 9.16638L8.66675 9.11324V8.95382L13.2366 6.56259H13.3429V9.08667H13.4758C14.4323 8.23645 15.309 7.60765 16.1061 7.20025C16.9032 6.77515 17.6648 6.56259 18.3911 6.56259C19.3299 6.56259 19.9941 6.846 20.3838 7.41281C20.7912 7.97962 20.9949 8.78555 20.9949 9.8306V14.9319C20.9949 16.2072 21.0214 17.1106 21.0746 17.642C21.1277 18.1733 21.2251 18.5276 21.3668 18.7047C21.5085 18.8818 21.7654 19.0235 22.1373 19.1298L22.9344 19.3689V19.5284H16.1858V19.3689L16.9563 19.1298C17.3283 19.0235 17.5851 18.8818 17.7268 18.7047C17.8685 18.5276 17.966 18.1733 18.0191 17.642C18.09 17.1106 18.1254 16.2072 18.1254 14.9319V10.8668C18.1254 10.176 17.9837 9.67119 17.7003 9.35236C17.4346 9.01581 17.0006 8.84754 16.3984 8.84754C15.6013 8.84754 14.6005 9.04239 13.3961 9.43207V14.9319Z" fill="#C3A195"/>
<path d="M35.7046 14.9319C35.7046 16.2072 35.7312 17.1106 35.7843 17.642C35.8552 18.1733 35.9615 18.5276 36.1032 18.7047C36.2449 18.8818 36.5017 19.0235 36.8737 19.1298L37.6708 19.3689V19.5284H30.8956V19.3689L31.6927 19.1298C32.0647 19.0235 32.3215 18.8818 32.4632 18.7047C32.6049 18.5276 32.7023 18.1733 32.7555 17.642C32.8263 17.1106 32.8617 16.2072 32.8617 14.9319V10.8668C32.8617 10.1937 32.7289 9.6889 32.4632 9.35236C32.1975 9.01581 31.7813 8.84754 31.2144 8.84754C30.3642 8.84754 29.3369 9.04239 28.1324 9.43207V14.9319C28.1324 16.2072 28.159 17.1106 28.2121 17.642C28.283 18.1733 28.3893 18.5276 28.531 18.7047C28.6727 18.8818 28.9295 19.0235 29.3015 19.1298L30.0985 19.3689V19.5284H23.3234V19.3689L24.1205 19.1298C24.4924 19.0235 24.7493 18.8818 24.891 18.7047C25.0327 18.5276 25.1301 18.1733 25.1832 17.642C25.2541 17.1106 25.2895 16.2072 25.2895 14.9319V12.8064L25.2629 6.35004C25.2807 5.21642 25.2541 4.40163 25.1832 3.90567C25.1124 3.40971 24.9884 3.07317 24.8113 2.89604C24.6341 2.7012 24.3242 2.56836 23.8813 2.4975L23.4562 2.44437V2.28495L28.0527 0H28.159V1.91298L28.1324 6.13749V7.86448L28.0793 9.08667H28.2121C29.1686 8.23645 30.0454 7.60765 30.8425 7.20025C31.6573 6.77515 32.4189 6.56259 33.1274 6.56259C34.8456 6.56259 35.7046 7.65193 35.7046 9.8306V14.9319Z" fill="#C3A195"/>
<path d="M49.2201 13.3112C49.2023 15.4898 48.7418 17.1371 47.8385 18.253C46.9528 19.3512 45.7041 19.9003 44.0922 19.9003C43.1357 19.9003 42.2412 19.6878 41.4087 19.2627C40.5762 18.8198 39.8943 18.1379 39.3629 17.2168C38.8315 16.2781 38.5658 15.0913 38.5658 13.6566C38.5658 12.1864 38.8669 10.9199 39.4692 9.85717C40.0891 8.79441 40.8508 7.98847 41.7541 7.43938C42.6752 6.89028 43.5608 6.61573 44.411 6.61573C45.7395 6.61573 46.8377 7.05855 47.7056 7.94419C48.5913 8.82983 49.0341 10.0874 49.0341 11.717L48.7152 12.0624L41.4884 11.8233V12.089C41.4884 13.8603 41.825 15.2507 42.498 16.2604C43.1888 17.27 44.1276 17.7748 45.3144 17.7748C46.3594 17.7748 47.2274 17.394 47.9182 16.6323C48.609 15.853 48.9898 14.737 49.0606 13.2846L49.2201 13.3112ZM44.0922 7.30653C43.4368 7.30653 42.8612 7.66964 42.3652 8.39587C41.8692 9.12209 41.5858 10.1317 41.515 11.4248L46.0052 11.2919C46.076 10.9554 46.1115 10.5834 46.1115 10.176C46.1115 9.36121 45.9432 8.67927 45.6066 8.13018C45.2701 7.58108 44.7653 7.30653 44.0922 7.30653Z" fill="#C3A195"/>
<path d="M53.4479 19.9535C52.6685 19.9535 52.022 19.6789 51.5083 19.1298C51.0124 18.563 50.7644 17.8545 50.7644 17.0043C50.7644 15.9947 51.1186 15.1976 51.8272 14.6131C52.5534 14.0108 53.811 13.5503 55.6 13.2315L57.4067 12.8861V10.4417C57.4067 9.32579 57.1941 8.52871 56.769 8.05047C56.3616 7.55451 55.8745 7.30653 55.3077 7.30653C54.8649 7.30653 54.5106 7.4748 54.2449 7.81134C53.9793 8.14789 53.8464 8.73241 53.8464 9.56491C53.8464 10.2203 53.935 11.0174 54.1121 11.9561L51.0035 12.2484C51.1629 10.2114 51.8006 8.75898 52.9165 7.89105C54.0501 7.02312 55.3343 6.58916 56.769 6.58916C57.9558 6.58916 58.8326 6.89028 59.3994 7.49251C59.9662 8.07704 60.2496 8.95382 60.2496 10.1229C60.2496 10.6365 60.2319 11.4779 60.1964 12.6469C60.161 14.0285 60.1433 15.2153 60.1433 16.2072C60.1433 16.7209 60.2053 17.1106 60.3293 17.3763C60.471 17.6242 60.6924 17.7482 60.9935 17.7482C61.4718 17.7482 61.7906 17.518 61.95 17.0574C62.1271 16.5792 62.2157 15.7644 62.2157 14.6131H62.4283C62.4637 16.2958 62.2777 17.5888 61.8703 18.4922C61.4629 19.3778 60.7721 19.8206 59.7979 19.8206C58.2215 19.8206 57.4421 18.8641 57.4598 16.9512L57.3807 17.4985C56.7961 18.3842 56.6805 18.6691 56.0782 19.2359C55.476 19.785 54.2627 19.9535 53.4479 19.9535ZM54.9357 17.6685C55.3786 17.6685 55.7594 17.5888 56.0782 17.4294C56.4148 17.2523 56.8576 16.9866 57.4067 16.6323V15.1096L55.8391 15.9947C54.9535 16.3312 54.3247 14.3917 53.9527 14.7459C53.5807 15.0825 53.3947 15.4987 53.3947 15.9947C53.3947 16.526 53.5276 16.9423 53.7933 17.2434C54.0767 17.5268 54.4575 17.6685 54.9357 17.6685Z" fill="#C3A195"/>
<path d="M67.8849 14.6662C67.8849 15.9592 67.9381 16.8803 68.0443 17.4294C68.1683 17.9785 68.3809 18.3505 68.682 18.5453C68.9831 18.7401 69.5234 18.935 70.3027 19.1298L71.2326 19.3689V19.5284H63.0228V19.3689L63.8464 19.1298C64.2184 19.0058 64.4752 18.8553 64.6169 18.6781C64.7586 18.501 64.856 18.1379 64.9092 17.5888C64.98 17.022 65.0154 16.0478 65.0154 14.6662V12.7798C65.0154 11.7347 64.98 10.9819 64.9092 10.5214C64.8383 10.0432 64.7055 9.71547 64.5106 9.53834C64.3335 9.36121 64.0324 9.23723 63.6073 9.16638L63.1556 9.11324V8.95382L67.7255 6.56259L67.8318 6.58916V9.72433H67.9381C68.8945 8.64385 69.7271 7.85563 70.4356 7.35967C71.1618 6.846 71.826 6.58916 72.4282 6.58916H72.6142V9.88374H72.5345C71.7552 9.6889 71.0201 9.59148 70.3293 9.59148C69.4259 9.59148 68.6111 9.7509 67.8849 10.0697V14.6662Z" fill="#C3A195"/>
<path d="M77.6333 19.9003C75.5255 19.9003 74.4716 18.7047 74.4716 16.3135C74.4716 15.7821 74.507 14.3828 74.5779 12.1156C74.6841 9.47635 74.7373 7.9619 74.7373 7.57222H73.1431V6.96113H74.8967L77.3411 2.94918H77.4739V6.96113H81.6984L81.7515 7.04084L81.6718 7.57222H77.4739C77.4208 10.2291 77.3942 12.8506 77.3942 15.4367C77.3942 16.3046 77.5182 16.9246 77.7662 17.2965C78.0319 17.6508 78.4481 17.8279 79.0149 17.8279C79.4754 17.8279 79.8563 17.7217 80.1574 17.5091C80.4762 17.2966 80.7508 16.9246 80.981 16.3932C81.229 15.8441 81.4681 15.0647 81.6984 14.0551L81.8578 14.0817C81.663 16.0301 81.229 17.4914 80.5559 18.4656C79.9006 19.4221 78.9264 19.9003 77.6333 19.9003Z" fill="#C3A195"/>
<path d="M85.273 19.8738C84.777 19.8738 84.3519 19.7232 83.9977 19.4221C83.6611 19.1033 83.4929 18.7224 83.4929 18.2796C83.4929 17.8545 83.6611 17.4914 83.9977 17.1903C84.3519 16.8714 84.777 16.712 85.273 16.712C85.7335 16.712 86.1321 16.8714 86.4686 17.1903C86.8229 17.4914 87 17.8545 87 18.2796C87 18.7224 86.8229 19.1033 86.4686 19.4221C86.1321 19.7232 85.7335 19.8738 85.273 19.8738Z" fill="#C3A195"/>
<path d="M55.2609 15.1112C54.5762 14.4603 53.4684 14.4571 52.7866 15.1053C52.1049 15.7534 52.1082 16.8064 52.7929 17.4574L55.3276 19.867C55.4328 19.9669 55.6032 19.9669 55.7083 19.867L58.2299 17.4713C58.91 16.8211 58.9079 15.771 58.223 15.1199C57.5371 14.4678 56.4288 14.4647 55.7458 15.1139L55.505 15.3433L55.2609 15.1112Z" fill="#131414"/>
<path d="M55.2918 15.9239L55.5904 15.1638L54.9932 14.7837L54.8574 16.0596L55.889 16.5483L55.509 17.6613L56.3234 16.4668L55.2918 15.9239Z" fill="#C3A195"/>
</svg>
