<svg width="20" height="20" viewBox="0 0 20 20" fill="none" xmlns="http://www.w3.org/2000/svg">
<path d="M17.0051 0H2.29798C1.02949 0 0 1.02949 0 2.29798V17.0051C0 18.2735 1.02949 19.303 2.29798 19.303H17.0051C18.2735 19.303 19.303 18.2735 19.303 17.0051V2.29798C19.303 1.02949 18.2735 0 17.0051 0ZM15.1667 6.89394H14.2475C13.2639 6.89394 12.8687 7.12374 12.8687 7.81313V9.19192H15.1667L14.7071 11.4899H12.8687V18.3838H10.5707V11.4899H8.73232V9.19192H10.5707V7.81313C10.5707 5.97475 11.4899 4.59596 13.3283 4.59596C14.6611 4.59596 15.1667 5.05556 15.1667 5.05556V6.89394Z" fill="#C3DAE2"/>
</svg>
