<svg width="20" height="20" viewBox="0 0 20 20" fill="none" xmlns="http://www.w3.org/2000/svg">
<path d="M17.0051 0H2.29798C1.02949 0 0 1.02949 0 2.29798V17.0051C0 18.2735 1.02949 19.303 2.29798 19.303H17.0051C18.2735 19.303 19.303 18.2735 19.303 17.0051V2.29798C19.303 1.02949 18.2735 0 17.0051 0ZM5.97475 7.35354V16.0859H3.21717V7.35354H5.97475ZM3.21717 4.81197C3.21717 4.16854 3.76869 3.67677 4.59596 3.67677C5.42323 3.67677 5.94258 4.16854 5.97475 4.81197C5.97475 5.4554 5.46 5.97475 4.59596 5.97475C3.76869 5.97475 3.21717 5.4554 3.21717 4.81197ZM16.0859 16.0859H13.3283C13.3283 16.0859 13.3283 11.83 13.3283 11.4899C13.3283 10.5707 12.8687 9.65151 11.7197 9.63313H11.6829C10.5707 9.63313 10.1111 10.5799 10.1111 11.4899C10.1111 11.9081 10.1111 16.0859 10.1111 16.0859H7.35354V7.35354H10.1111V8.5301C10.1111 8.5301 10.9981 7.35354 12.7814 7.35354C14.606 7.35354 16.0859 8.60823 16.0859 11.1498V16.0859Z" fill="#C3DAE2"/>
</svg>
