<svg width="24" height="20" viewBox="0 0 24 20" fill="none" xmlns="http://www.w3.org/2000/svg">
<path d="M23.0355 2.95856C22.1863 3.33557 21.2761 3.58871 20.3192 3.70361C21.2958 3.11834 22.0462 2.19197 22.3981 1.08966C21.4861 1.63004 20.4718 2.02321 19.3964 2.23506C18.5346 1.31586 17.3067 0.743164 15.9476 0.743164C13.3373 0.743164 11.2206 2.85802 11.2206 5.46838C11.2206 5.83822 11.2637 6.19907 11.3445 6.54556C7.41637 6.34808 3.93529 4.46661 1.6032 1.6067C1.19567 2.30687 0.964075 3.11834 0.964075 3.98367C0.964075 5.62278 1.79709 7.06979 3.06637 7.91896C2.2908 7.89383 1.56191 7.68019 0.924578 7.32652C0.924578 7.34627 0.924578 7.36601 0.924578 7.38576C0.924578 9.67656 2.55471 11.585 4.71445 12.0212C4.31948 12.1289 3.90118 12.1864 3.47031 12.1864C3.16511 12.1864 2.86888 12.1577 2.57984 12.1002C3.18306 13.9763 4.92809 15.3461 6.99448 15.3838C5.37871 16.6513 3.34105 17.4053 1.12565 17.4053C0.743253 17.4053 0.368036 17.3838 0 17.3389C2.08973 18.6818 4.57442 19.4627 7.24402 19.4627C15.9368 19.4627 20.6908 12.2618 20.6908 6.01775C20.6908 5.81308 20.6854 5.60662 20.6782 5.40555C21.601 4.73949 22.4017 3.90648 23.0355 2.95856Z" fill="#C3DAE2"/>
</svg>
