<svg width="23" height="18" viewBox="0 0 23 18" fill="none" xmlns="http://www.w3.org/2000/svg">
<path d="M22.464 14.6482C22.2348 15.8516 21.2606 16.7685 20.0572 16.9404C18.1661 17.2269 15.0142 17.5708 11.4612 17.5708C7.96557 17.5708 4.81372 17.2269 2.86531 16.9404C1.66188 16.7685 0.687675 15.8516 0.45845 14.6482C0.229225 13.3301 0 11.3817 0 8.97484C0 6.56798 0.229225 4.61957 0.45845 3.30152C0.687675 2.09809 1.66188 1.18119 2.86531 1.00928C4.75642 0.722744 7.90826 0.378906 11.4612 0.378906C15.0142 0.378906 18.1088 0.722744 20.0572 1.00928C21.2606 1.18119 22.2348 2.09809 22.464 3.30152C22.6933 4.61957 22.9798 6.56798 22.9798 8.97484C22.9225 11.3817 22.6933 13.3301 22.464 14.6482Z" fill="#C3DAE2"/>
<path d="M9.17188 12.9867V4.96387L16.0486 8.9753L9.17188 12.9867Z" fill="#230208"/>
</svg>
